<svg xmlns="http://www.w3.org/2000/svg" width="256" height="256" viewBox="0 0 100 100"><path d="M13.37 22.42L43.25 22.42Q43.52 22.87 43.79 23.63Q44.06 24.40 44.06 25.30L44.06 25.30Q44.06 26.83 43.34 27.73Q42.62 28.63 41.27 28.63L41.27 28.63L16.79 28.63L16.79 47.35L40.10 47.35Q40.37 47.80 40.64 48.56Q40.91 49.33 40.91 50.23L40.91 50.23Q40.91 51.76 40.19 52.66Q39.47 53.56 38.12 53.56L38.12 53.56L16.79 53.56L16.79 77.05Q16.34 77.23 15.40 77.41Q14.45 77.59 13.46 77.59L13.46 77.59Q9.41 77.59 9.41 74.34L9.41 74.34L9.41 26.38Q9.41 24.58 10.49 23.50Q11.57 22.42 13.37 22.42L13.37 22.42ZM59.90 22.42L89.78 22.42Q90.05 22.87 90.32 23.63Q90.59 24.40 90.59 25.30L90.59 25.30Q90.59 26.83 89.87 27.73Q89.15 28.63 87.80 28.63L87.80 28.63L63.32 28.63L63.32 47.35L86.63 47.35Q86.90 47.80 87.17 48.56Q87.44 49.33 87.44 50.23L87.44 50.23Q87.44 51.76 86.72 52.66Q86 53.56 84.65 53.56L84.65 53.56L63.32 53.56L63.32 77.05Q62.87 77.23 61.93 77.41Q60.98 77.59 59.99 77.59L59.99 77.59Q55.94 77.59 55.94 74.34L55.94 74.34L55.94 26.38Q55.94 24.58 57.02 23.50Q58.10 22.42 59.90 22.42L59.90 22.42Z" fill="#000000"></path></svg>